<svg width="24" height="24" viewBox="0 0 24 24" fill="none" xmlns="http://www.w3.org/2000/svg">
<path d="M7.66801 21.48C7.33468 21.48 7.01968 21.418 6.72301 21.294C6.42635 21.17 6.15735 20.988 5.91601 20.748L1.56201 16.404L2.13701 15.804C2.29301 15.6473 2.47368 15.5497 2.67901 15.511C2.88434 15.4723 3.09601 15.4823 3.31401 15.541L5.34601 16.002V8C5.34601 7.858 5.39401 7.73933 5.49001 7.644C5.58601 7.548 5.70501 7.5 5.84701 7.5C5.98901 7.5 6.10768 7.548 6.20301 7.644C6.29834 7.74 6.34601 7.85867 6.34601 8V14.808H8.11601V11.038C8.11601 10.8967 8.16368 10.778 8.25901 10.682C8.35501 10.5867 8.47401 10.539 8.61601 10.539C8.75801 10.539 8.87668 10.5867 8.97201 10.682C9.06734 10.7773 9.11535 10.8963 9.11601 11.039V14.808H10.885V12.423C10.885 12.2817 10.933 12.163 11.029 12.067C11.125 11.971 11.2437 11.923 11.385 11.923C11.5263 11.923 11.645 11.971 11.741 12.067C11.837 12.163 11.885 12.2817 11.885 12.423V14.808H13.654C13.654 14.666 13.702 14.5473 13.798 14.452C13.894 14.3567 14.013 14.3087 14.155 14.308C14.297 14.3073 14.4157 14.3553 14.511 14.452C14.6063 14.5487 14.654 14.6673 14.654 14.808V17.981C14.654 18.9523 14.3137 19.7783 13.633 20.459C12.9523 21.1397 12.1257 21.4803 11.153 21.481L7.66801 21.48ZM16.134 9.923C14.9127 9.923 13.7853 9.60967 12.752 8.983C11.7187 8.35633 10.891 7.51533 10.269 6.46C10.891 5.40667 11.7187 4.56667 12.752 3.94C13.7853 3.31333 14.913 3 16.135 3C17.357 3 18.4843 3.31333 19.517 3.94C20.5497 4.56667 21.3773 5.40767 22 6.463C21.378 7.51633 20.5503 8.35633 19.517 8.983C18.4837 9.61033 17.356 9.923 16.134 9.923ZM16.134 8.232C16.6293 8.232 17.048 8.061 17.39 7.719C17.7327 7.377 17.904 6.95833 17.904 6.463C17.904 5.96767 17.733 5.549 17.391 5.207C17.049 4.86433 16.6303 4.693 16.135 4.693C15.6397 4.693 15.221 4.864 14.879 5.206C14.537 5.548 14.3657 5.96667 14.365 6.462C14.3643 6.95733 14.5353 7.376 14.878 7.718C15.2207 8.06 15.6393 8.23133 16.134 8.232ZM16.137 7.462C15.8597 7.462 15.6233 7.36533 15.428 7.172C15.232 6.978 15.134 6.74233 15.134 6.465C15.134 6.18767 15.231 5.951 15.425 5.755C15.6197 5.56033 15.8553 5.463 16.132 5.463C16.4093 5.463 16.646 5.55967 16.842 5.753C17.038 5.94633 17.1357 6.182 17.135 6.46C17.1343 6.738 17.037 6.97467 16.843 7.17C16.649 7.36533 16.4137 7.462 16.137 7.462Z" fill="#F0F7FE"/>
</svg>
