<svg width="34" height="34" viewBox="0 0 34 34" fill="none" xmlns="http://www.w3.org/2000/svg">
<g clip-path="url(#clip0_10_4967)">
<path d="M29.0209 4.97914C25.8099 1.76827 21.5409 0 17 0C12.4591 0 8.19008 1.76827 4.97914 4.97914C1.76827 8.19008 0 12.4591 0 17C0 21.5409 1.76827 25.8099 4.97914 29.0209C8.19008 32.2317 12.4591 34 17 34C21.5409 34 25.8099 32.2317 29.0209 29.0209C32.2317 25.8099 34 21.5409 34 17C34 12.4591 32.2317 8.19008 29.0209 4.97914ZM17 31.7826C8.8489 31.7826 2.21737 25.1512 2.21737 17C2.21737 8.84883 8.8489 2.21737 17 2.21737C25.1511 2.21737 31.7826 8.8489 31.7826 17C31.7826 25.1511 25.1511 31.7826 17 31.7826Z" fill="#D13239"/>
<path d="M22.3 7.55078L13.7638 17.6797L11.0641 15.2252L6.43359 20.3183L14.4215 27.5806L27.5636 11.9867L22.3 7.55078ZM14.2095 24.3912L9.56584 20.1693L11.2131 18.3575L13.9756 20.869L22.5665 10.6753L24.4389 12.2533L14.2095 24.3912Z" fill="#D13239"/>
</g>
<defs>
<clipPath id="clip0_10_4967">
<rect width="34" height="34" fill="white"/>
</clipPath>
</defs>
</svg>
