<svg width="32" height="32" viewBox="0 0 32 32" fill="none" xmlns="http://www.w3.org/2000/svg">
<path d="M17.046 23.4413C17.1858 23.5807 17.2968 23.7463 17.3725 23.9286C17.4482 24.1109 17.4872 24.3064 17.4872 24.5038C17.4872 24.7012 17.4482 24.8967 17.3725 25.079C17.2968 25.2614 17.1858 25.4269 17.046 25.5663L16.3035 26.3088C14.8965 27.7158 12.9883 28.5062 10.9985 28.5062C9.00874 28.5062 7.10047 27.7158 5.6935 26.3088C4.28652 24.9018 3.49609 22.9936 3.49609 21.0038C3.49609 19.014 4.28652 17.1058 5.6935 15.6988L8.7085 12.6851C10.0604 11.3299 11.8792 10.5428 13.7925 10.4852C15.7058 10.4276 17.5688 11.1037 18.9997 12.3751C19.1475 12.5064 19.2679 12.6655 19.3541 12.8434C19.4404 13.0212 19.4907 13.2143 19.5023 13.4117C19.514 13.609 19.4866 13.8067 19.4218 13.9934C19.357 14.1802 19.2561 14.3523 19.1247 14.5001C18.9934 14.6478 18.8343 14.7682 18.6564 14.8545C18.4786 14.9407 18.2855 14.991 18.0881 15.0027C17.8908 15.0143 17.6931 14.9869 17.5064 14.9221C17.3196 14.8573 17.1475 14.7564 16.9997 14.6251C16.1416 13.863 15.0248 13.4575 13.8776 13.4917C12.7305 13.5258 11.6397 13.997 10.8285 14.8088L7.816 17.8188C6.97195 18.6629 6.49776 19.8076 6.49776 21.0013C6.49776 22.195 6.97195 23.3398 7.816 24.1838C8.66005 25.0279 9.80483 25.502 10.9985 25.502C12.1922 25.502 13.3369 25.0279 14.181 24.1838L14.9235 23.4413C15.0628 23.3018 15.2282 23.1912 15.4103 23.1157C15.5924 23.0402 15.7876 23.0014 15.9847 23.0014C16.1819 23.0014 16.3771 23.0402 16.5592 23.1157C16.7413 23.1912 16.9067 23.3018 17.046 23.4413ZM26.306 5.6913C24.8979 4.28649 22.99 3.49756 21.001 3.49756C19.012 3.49756 17.1041 4.28649 15.696 5.6913L14.9535 6.4338C14.6717 6.7156 14.5134 7.09779 14.5134 7.4963C14.5134 7.89482 14.6717 8.27701 14.9535 8.5588C15.2353 8.8406 15.6175 8.99891 16.016 8.99891C16.4145 8.99891 16.7967 8.8406 17.0785 8.5588L17.821 7.8163C18.665 6.97225 19.8098 6.49807 21.0035 6.49807C22.1972 6.49807 23.3419 6.97225 24.186 7.8163C25.03 8.66036 25.5042 9.80513 25.5042 10.9988C25.5042 12.1925 25.03 13.3373 24.186 14.1813L21.1722 17.1963C20.3603 18.0078 19.2689 18.4782 18.1215 18.5115C16.9741 18.5447 15.8573 18.1382 14.9997 17.3751C14.852 17.2437 14.6799 17.1428 14.4931 17.078C14.3064 17.0132 14.1087 16.9858 13.9114 16.9975C13.714 17.0091 13.5209 17.0594 13.3431 17.1457C13.1652 17.2319 13.0061 17.3523 12.8747 17.5001C12.7434 17.6478 12.6425 17.8199 12.5777 18.0067C12.5129 18.1934 12.4855 18.3911 12.4971 18.5884C12.5088 18.7858 12.5591 18.9789 12.6453 19.1567C12.7316 19.3346 12.852 19.4937 12.9997 19.6251C14.4297 20.8961 16.2914 21.5727 18.2038 21.5162C20.1162 21.4597 21.9348 20.6745 23.2872 19.3213L26.3022 16.3076C27.7087 14.8998 28.499 12.9914 28.4997 11.0015C28.5004 9.01149 27.7115 7.10258 26.306 5.6938V5.6913Z" fill="#D13239"/>
</svg>
