<svg width="32" height="32" viewBox="0 0 32 32" fill="none" xmlns="http://www.w3.org/2000/svg">
<path d="M8.07962 30.4001H1.9596V11.1401H8.07962V30.4001ZM5.01961 8.4401C3.03961 8.4401 1.59961 7.0001 1.59961 5.0201C1.59961 3.0401 3.21961 1.6001 5.01961 1.6001C6.99961 1.6001 8.43961 3.0401 8.43961 5.0201C8.43961 7.0001 6.99961 8.4401 5.01961 8.4401ZM30.3996 30.4001H24.2796V19.9601C24.2796 16.9001 23.0196 16.0001 21.2196 16.0001C19.4196 16.0001 17.6196 17.4401 17.6196 20.1401V30.4001H11.4996V11.1401H17.2596V13.8401C17.7996 12.5801 19.9596 10.6001 23.0196 10.6001C26.4396 10.6001 30.0396 12.5801 30.0396 18.5201V30.4001H30.3996Z" fill="#D13239"/>
</svg>
