<svg width="33" height="24" viewBox="0 0 33 24" fill="none" xmlns="http://www.w3.org/2000/svg">
<g clip-path="url(#clip0_3_712)">
<path d="M12 21.0001C10.336 21.0001 8.92 20.4161 7.752 19.2481C6.584 18.0801 6 16.6641 6 15.0001V9.07715C6 7.41315 6.584 5.99715 7.752 4.82915C8.92 3.66115 10.336 3.07715 12 3.07715C13.664 3.07715 15.08 3.66115 16.248 4.82915C17.416 5.99715 18 7.41315 18 9.07715V15.0001C18 16.6641 17.416 18.0801 16.248 19.2481C15.08 20.4161 13.664 21.0001 12 21.0001ZM12.5 9.07715H17C17 7.76182 16.5633 6.63282 15.69 5.69015C14.8167 4.74748 13.7533 4.21748 12.5 4.10015V9.07715ZM7 9.07715H11.5V4.10015C10.2473 4.21815 9.184 4.74815 8.31 5.69015C7.436 6.63215 6.99933 7.76148 7 9.07815M12 20.0001C13.3833 20.0001 14.5627 19.5125 15.538 18.5371C16.5133 17.5618 17.0007 16.3828 17 15.0001V10.0771H7V15.0001C7 16.3835 7.48767 17.5628 8.463 18.5381C9.43833 19.5135 10.6173 20.0008 12 20.0001Z" fill="white"/>
</g>
<path d="M28.338 18C27.93 17.148 27.282 16.356 26.394 15.624V14.994C26.778 15.174 27.114 15.354 27.402 15.534C27.69 15.702 27.93 15.87 28.122 16.038V5.544H28.878V16.038C29.082 15.87 29.328 15.702 29.616 15.534C29.904 15.354 30.234 15.174 30.606 14.994V15.624C29.73 16.356 29.082 17.148 28.662 18H28.338Z" fill="white"/>
<defs>
<clipPath id="clip0_3_712">
<rect width="24" height="24" fill="white"/>
</clipPath>
</defs>
</svg>
